<mxfile host="65bd71144e">
    <diagram id="qN0PBMXvl69ToxzrPlfz" name="PÃ¡gina-1">
        <mxGraphModel dx="804" dy="459" grid="1" gridSize="10" guides="1" tooltips="1" connect="1" arrows="1" fold="1" page="1" pageScale="1" pageWidth="827" pageHeight="1169" math="0" shadow="0">
            <root>
                <mxCell id="0"/>
                <mxCell id="1" parent="0"/>
                <mxCell id="22" style="edgeStyle=none;html=1;entryX=0.5;entryY=0;entryDx=0;entryDy=0;" parent="1" source="2" target="6" edge="1">
                    <mxGeometry relative="1" as="geometry"/>
                </mxCell>
                <mxCell id="2" value="Inicio" style="ellipse;whiteSpace=wrap;html=1;fontSize=19;gradientColor=#190033;fillColor=#006666;" parent="1" vertex="1">
                    <mxGeometry x="354" y="110" width="120" height="80" as="geometry"/>
                </mxCell>
                <mxCell id="3" value="Fin" style="ellipse;whiteSpace=wrap;html=1;fontSize=19;gradientColor=#006666;fillColor=#190033;" parent="1" vertex="1">
                    <mxGeometry x="640" y="765" width="120" height="80" as="geometry"/>
                </mxCell>
                <mxCell id="32" style="edgeStyle=none;html=1;entryX=0.5;entryY=0;entryDx=0;entryDy=0;" parent="1" source="6" target="31" edge="1">
                    <mxGeometry relative="1" as="geometry">
                        <mxPoint x="415.2226804123711" y="380.87113402061846" as="targetPoint"/>
                    </mxGeometry>
                </mxCell>
                <mxCell id="6" value="c" style="shape=parallelogram;perimeter=parallelogramPerimeter;whiteSpace=wrap;html=1;fixedSize=1;fontSize=19;fillColor=#330066;rounded=0;gradientColor=#000099;" parent="1" vertex="1">
                    <mxGeometry x="354" y="250" width="120" height="60" as="geometry"/>
                </mxCell>
                <mxCell id="14" style="edgeStyle=none;html=1;fontSize=19;fontColor=#000000;entryX=0.5;entryY=0;entryDx=0;entryDy=0;" parent="1" source="8" target="18" edge="1">
                    <mxGeometry relative="1" as="geometry">
                        <mxPoint x="660" y="690" as="targetPoint"/>
                        <Array as="points">
                            <mxPoint x="700" y="545"/>
                        </Array>
                    </mxGeometry>
                </mxCell>
                <mxCell id="51" style="edgeStyle=none;html=1;" parent="1" source="8" target="11" edge="1">
                    <mxGeometry relative="1" as="geometry"/>
                </mxCell>
                <mxCell id="8" value="&lt;font color=&quot;#000000&quot;&gt;n&amp;gt;0&lt;/font&gt;" style="rhombus;whiteSpace=wrap;html=1;fontSize=19;fillColor=#FF9933;rounded=0;gradientColor=#FFFF33;" parent="1" vertex="1">
                    <mxGeometry x="358" y="480" width="116" height="130" as="geometry"/>
                </mxCell>
                <mxCell id="13" style="edgeStyle=none;html=1;fontSize=19;fontColor=#000000;entryX=0;entryY=0.5;entryDx=0;entryDy=0;" parent="1" source="11" target="8" edge="1">
                    <mxGeometry relative="1" as="geometry">
                        <mxPoint x="330" y="530" as="targetPoint"/>
                        <Array as="points">
                            <mxPoint x="416" y="840"/>
                            <mxPoint x="240" y="840"/>
                            <mxPoint x="240" y="545"/>
                        </Array>
                        <mxPoint x="418" y="930" as="sourcePoint"/>
                    </mxGeometry>
                </mxCell>
                <mxCell id="11" value="c=c+0.05*c&lt;br&gt;n=n+1" style="rounded=0;whiteSpace=wrap;html=1;fontSize=19;fillColor=#330033;gradientColor=#990099;" parent="1" vertex="1">
                    <mxGeometry x="342" y="700" width="142" height="70" as="geometry"/>
                </mxCell>
                <mxCell id="17" value="&lt;font color=&quot;#ffffff&quot; style=&quot;font-size: 26px&quot;&gt;Falso&lt;/font&gt;" style="text;html=1;strokeColor=none;fillColor=#660000;align=center;verticalAlign=middle;whiteSpace=wrap;rounded=0;fontSize=19;fontColor=#000000;gradientColor=#FF3333;" parent="1" vertex="1">
                    <mxGeometry x="500" y="490" width="120" height="40" as="geometry"/>
                </mxCell>
                <mxCell id="53" style="edgeStyle=none;html=1;entryX=0.5;entryY=0;entryDx=0;entryDy=0;" parent="1" source="18" target="3" edge="1">
                    <mxGeometry relative="1" as="geometry"/>
                </mxCell>
                <mxCell id="18" value="&lt;font style=&quot;font-size: 19px&quot;&gt;x,n&lt;/font&gt;" style="shape=document;whiteSpace=wrap;html=1;boundedLbl=1;fontSize=26;fontColor=#FFFFFF;fillColor=#1A1A1A;gradientColor=#006666;strokeColor=default;" parent="1" vertex="1">
                    <mxGeometry x="640" y="625" width="120" height="80" as="geometry"/>
                </mxCell>
                <mxCell id="20" value="&lt;font color=&quot;#ffffff&quot; style=&quot;font-size: 26px&quot;&gt;Verdadero&lt;/font&gt;" style="text;html=1;strokeColor=none;fillColor=#1A3300;align=center;verticalAlign=middle;whiteSpace=wrap;rounded=0;fontSize=19;fontColor=#000000;gradientColor=#00CC00;" parent="1" vertex="1">
                    <mxGeometry x="260" y="620" width="140" height="40" as="geometry"/>
                </mxCell>
                <mxCell id="33" style="edgeStyle=none;html=1;" parent="1" source="31" target="8" edge="1">
                    <mxGeometry relative="1" as="geometry"/>
                </mxCell>
                <mxCell id="31" value="d=c*2&lt;br&gt;n=0&lt;br&gt;x=c" style="rounded=0;whiteSpace=wrap;html=1;fontSize=19;fillColor=#330033;gradientColor=#990099;" parent="1" vertex="1">
                    <mxGeometry x="354" y="380" width="116" height="70" as="geometry"/>
                </mxCell>
            </root>
        </mxGraphModel>
    </diagram>
</mxfile>